<svg version="1.1" id="Layer_1" xmlns="http://www.w3.org/2000/svg" xmlns:xlink="http://www.w3.org/1999/xlink" x="0px" y="0px" width="1500px" height="283.945px" viewBox="0 0 1500 283.945" enable-background="new 0 0 1500 283.945" xml:space="preserve">
<g>
	<g>
		<path d="M398.514,79.566H355.41v126.382h-28.667V79.566h-43.313V52.574h115.083V79.566z"></path>
		<path d="M514.434,142.548v63.4h-27.411v-57.123c0-9.763-2.164-16.321-6.486-19.669c-4.325-3.485-9.347-5.231-15.065-5.231
			c-6.14,0-11.649,1.955-16.53,5.859c-5.021,3.766-7.533,10.184-7.533,19.25v56.914h-27.201V49.645h27.411v62.354
			c3.077-4.044,7.203-7.219,12.381-9.521c5.175-2.302,10.91-3.453,17.207-3.453c13.987,0,24.691,3.767,32.106,11.299
			S514.434,128.601,514.434,142.548z"></path>
		<path d="M634.538,163.681h-78.257c0.837,7.255,3.73,12.695,8.684,16.321c4.95,3.629,10.845,5.44,17.681,5.44
			c11.717,0,20.087-4.95,25.109-14.856l22.598,8.997c-3.766,9.207-9.939,16.357-18.518,21.448
			c-8.579,5.09-18.309,7.637-29.189,7.637c-7.673,0-14.719-1.328-21.133-3.976c-6.418-2.648-11.927-6.346-16.53-11.09
			c-4.604-4.741-8.161-10.495-10.671-17.263c-2.511-6.764-3.767-14.192-3.767-22.284c0-8.229,1.256-15.693,3.767-22.389
			c2.511-6.696,6.068-12.483,10.671-17.367c4.603-4.881,10.148-8.648,16.635-11.299c6.486-2.648,13.633-3.976,21.447-3.976
			c7.67,0,14.68,1.292,21.029,3.871c6.346,2.583,11.75,6.277,16.216,11.09c4.463,4.813,7.951,10.603,10.462,17.367
			c2.511,6.768,3.767,14.333,3.767,22.703V163.681z M606.708,144.85c-0.559-7.67-2.93-13.46-7.114-17.367
			c-4.185-3.904-9.834-5.859-16.949-5.859s-12.904,1.988-17.367,5.963c-4.466,3.976-7.323,9.73-8.579,17.263H606.708z"></path>
		<path d="M772.005,103.838c-2.651-8.507-7.291-14.993-13.915-19.459c-6.627-4.463-14.542-6.696-23.749-6.696
			c-6.836,0-13.009,1.223-18.518,3.662c-5.512,2.442-10.22,5.931-14.124,10.462c-3.907,4.535-6.905,9.939-8.998,16.216
			s-3.139,13.323-3.139,21.133c0,7.951,1.079,15.102,3.243,21.447c2.161,6.349,5.195,11.718,9.102,16.112
			c3.904,4.394,8.612,7.778,14.124,10.148c5.509,2.374,11.541,3.557,18.1,3.557c9.625,0,18.063-2.334,25.318-7.01
			c7.252-4.672,12.273-10.776,15.066-18.309l27.201,11.717c-5.162,13.114-13.951,23.367-26.364,30.759
			c-11.999,7.255-25.809,10.88-41.43,10.88c-11.162,0-21.31-1.883-30.445-5.649c-9.138-3.766-16.984-9.102-23.54-16.007
			c-6.559-6.905-11.613-15.203-15.17-24.9c-3.557-9.694-5.336-20.47-5.336-32.328c0-11.855,1.812-22.667,5.44-32.433
			c3.625-9.762,8.716-18.168,15.274-25.213c6.555-7.042,14.438-12.483,23.645-16.321c9.207-3.835,19.388-5.754,30.549-5.754
			c16.458,0,30.409,4.047,41.849,12.136c11.577,8.232,19.25,19.041,23.017,32.433L772.005,103.838z"></path>
		<path d="M921.195,142.548v63.4h-27.411v-57.123c0-9.763-2.164-16.321-6.486-19.669c-4.325-3.485-9.347-5.231-15.065-5.231
			c-6.14,0-11.649,1.955-16.53,5.859c-5.021,3.766-7.533,10.184-7.533,19.25v56.914h-27.201V49.645h27.411v62.354
			c3.077-4.044,7.203-7.219,12.381-9.521c5.175-2.302,10.91-3.453,17.207-3.453c13.987,0,24.691,3.767,32.106,11.299
			S921.195,128.601,921.195,142.548z"></path>
		<path d="M1041.299,163.681h-78.257c0.837,7.255,3.73,12.695,8.684,16.321c4.95,3.629,10.845,5.44,17.681,5.44
			c11.717,0,20.087-4.95,25.109-14.856l22.598,8.997c-3.766,9.207-9.939,16.357-18.518,21.448
			c-8.579,5.09-18.309,7.637-29.189,7.637c-7.673,0-14.719-1.328-21.133-3.976c-6.418-2.648-11.927-6.346-16.53-11.09
			c-4.604-4.741-8.161-10.495-10.671-17.263c-2.511-6.764-3.767-14.192-3.767-22.284c0-8.229,1.256-15.693,3.767-22.389
			c2.511-6.696,6.068-12.483,10.671-17.367c4.603-4.881,10.148-8.648,16.635-11.299c6.486-2.648,13.633-3.976,21.447-3.976
			c7.67,0,14.68,1.292,21.029,3.871c6.346,2.583,11.75,6.277,16.216,11.09c4.463,4.813,7.951,10.603,10.462,17.367
			c2.511,6.768,3.767,14.333,3.767,22.703V163.681z M1013.47,144.85c-0.559-7.67-2.93-13.46-7.114-17.367
			c-4.185-3.904-9.834-5.859-16.949-5.859s-12.904,1.988-17.367,5.963c-4.466,3.976-7.323,9.73-8.579,17.263H1013.47z"></path>
		<path d="M1108.672,99.025c12.136,0,22.493,2.939,31.072,8.818s14.333,13.682,17.263,23.405l-23.436,9.416
			c-1.674-5.159-4.708-9.311-9.102-12.45c-4.394-3.139-9.521-4.708-15.379-4.708c-8.37,0-14.892,2.776-19.564,8.324
			c-4.675,5.548-7.009,12.957-7.009,22.226c0,9.413,2.406,16.789,7.219,22.124c4.813,5.339,11.263,8.007,19.355,8.007
			c5.858,0,11.018-1.498,15.484-4.499c4.462-2.998,7.601-7.01,9.416-12.032l23.017,8.579c-3.348,10.004-9.416,17.913-18.204,23.72
			c-8.789,5.81-18.904,8.713-30.34,8.713c-7.951,0-15.206-1.328-21.761-3.976c-6.559-2.648-12.172-6.346-16.844-11.09
			c-4.675-4.741-8.301-10.495-10.881-17.263c-2.583-6.764-3.871-14.192-3.871-22.284c0-8.229,1.289-15.693,3.871-22.389
			c2.58-6.696,6.206-12.483,10.881-17.367c4.672-4.881,10.321-8.648,16.948-11.299C1093.43,100.353,1100.721,99.025,1108.672,99.025
			z"></path>
		<path d="M1174.163,205.948V49.645h27.411v92.903l38.291-40.384h34.107l-44.988,47.498l42.268,56.286h-33.27l-26.992-37.455
			l-9.416,10.044v27.411H1174.163z"></path>
		<path d="M1378.593,163.681h-78.256c0.836,7.255,3.73,12.695,8.684,16.321c4.949,3.629,10.844,5.44,17.68,5.44
			c11.719,0,20.088-4.95,25.109-14.856l22.6,8.997c-3.768,9.207-9.939,16.357-18.52,21.448c-8.578,5.09-18.309,7.637-29.189,7.637
			c-7.672,0-14.719-1.328-21.133-3.976c-6.418-2.648-11.926-6.346-16.529-11.09c-4.604-4.741-8.16-10.495-10.672-17.263
			c-2.512-6.764-3.766-14.192-3.766-22.284c0-8.229,1.254-15.693,3.766-22.389c2.512-6.696,6.068-12.483,10.672-17.367
			c4.604-4.881,10.148-8.648,16.635-11.299c6.486-2.648,13.633-3.976,21.447-3.976c7.67,0,14.68,1.292,21.029,3.871
			c6.346,2.583,11.75,6.277,16.215,11.09c4.463,4.813,7.951,10.603,10.463,17.367c2.51,6.768,3.766,14.333,3.766,22.703V163.681z
			 M1350.765,144.85c-0.561-7.67-2.93-13.46-7.115-17.367c-4.184-3.904-9.834-5.859-16.949-5.859
			c-7.113,0-12.904,1.988-17.365,5.963c-4.467,3.976-7.324,9.73-8.58,17.263H1350.765z"></path>
		<path d="M1452.034,100.699c3.768,0,7.811,0.491,12.137,1.465v25.109c-3.766-0.974-7.674-1.464-11.719-1.464
			c-8.787,0-15.588,2.72-20.4,8.16c-4.813,5.44-7.219,13.045-7.219,22.808v49.172h-27.41V102.374h25.121l1.453,11.927
			c2.229-4.463,5.891-7.847,10.984-10.148C1440.071,101.85,1445.757,100.699,1452.034,100.699z"></path>
	</g>
	<circle fill="#16D596" cx="127.738" cy="125.605" r="96.301"></circle>
	<path fill="#FFFFFF" d="M99.651,98.476c-3.582-3.582-9.388-3.582-12.97,0c-3.582,3.582-3.582,9.39,0,12.971l32.8,30.767
		l15.158,14.22c0.24,0.238,0.513,0.422,0.771,0.629l13.092-12.508l65.215-62.312c-3.349-6.626-7.429-12.815-12.154-18.453
		l-68.808,65.74L99.651,98.476z"></path>
</g>
</svg>