<svg xmlns="http://www.w3.org/2000/svg" width="166" height="23" viewBox="0 0 166 23"><g><g><g><path fill="#fff" d="M43.368 6.082h-5.483v14.394h-3.402V6.082H29V2.82h14.368z"/></g><g><path fill="#fff" d="M48.855 13.282v7.197H45.6V2.45h3.255v6.798c.784-.946 2.105-1.344 3.256-1.344 3.06 0 4.479 2.166 4.479 4.856v7.72h-3.255v-7.148c0-1.37-.661-2.44-2.228-2.44-1.37 0-2.178 1.046-2.252 2.39z"/></g><g><path fill="#fff" d="M67.803 16.142l2.717.822c-.612 2.117-2.521 3.885-5.483 3.885-3.304 0-6.217-2.416-6.217-6.55 0-3.909 2.84-6.449 5.923-6.449 3.72 0 5.948 2.416 5.948 6.35 0 .473-.049.971-.049 1.021h-8.616c.074 1.619 1.42 2.79 3.035 2.79 1.518 0 2.35-.773 2.742-1.869zM62.1 12.945h5.385c-.05-1.215-.833-2.406-2.693-2.406-1.689 0-2.619 1.29-2.692 2.406z"/></g><g><path fill="#fff" d="M82.135 20.853c-4.846 0-8.885-3.561-8.885-9.19 0-5.627 4.185-9.213 8.836-9.213 4.797 0 7.27 2.988 7.955 5.852l-3.182 1.021c-.416-1.693-1.762-3.561-4.773-3.561-2.595 0-5.336 1.893-5.336 5.902 0 3.76 2.595 5.827 5.385 5.827 2.962 0 4.406-1.967 4.87-3.61l3.158.97c-.66 2.715-3.157 6.002-8.028 6.002z"/></g><g><path fill="#fff" d="M95.365 13.282v7.197H92.11V2.45h3.255v6.798c.784-.946 2.105-1.344 3.256-1.344 3.06 0 4.479 2.166 4.479 4.856v7.72h-3.255v-7.148c0-1.37-.661-2.44-2.228-2.44-1.37 0-2.178 1.046-2.252 2.39z"/></g><g><path fill="#fff" d="M114.033 16.142l2.717.822c-.612 2.117-2.521 3.885-5.483 3.885-3.304 0-6.217-2.416-6.217-6.55 0-3.909 2.84-6.449 5.923-6.449 3.72 0 5.948 2.416 5.948 6.35 0 .473-.049.971-.049 1.021h-8.616c.074 1.619 1.42 2.79 3.035 2.79 1.518 0 2.35-.773 2.742-1.869zm-5.703-3.197h5.385c-.05-1.215-.833-2.406-2.693-2.406-1.689 0-2.619 1.29-2.692 2.406z"/></g><g><path fill="#fff" d="M125.185 10.913c-1.665 0-3.06 1.22-3.06 3.436 0 2.217 1.42 3.462 3.084 3.462 1.665 0 2.497-1.12 2.766-2.067l2.864.971c-.539 2.042-2.423 4.134-5.63 4.134-3.549 0-6.339-2.74-6.339-6.5 0-3.785 2.741-6.499 6.241-6.499 3.28 0 5.14 2.067 5.655 4.134l-2.913.996c-.294-1.021-1.053-2.067-2.668-2.067z"/></g><g><path fill="#fff" d="M144.455 8.227l-4.822 5.155 4.92 7.097h-3.99l-3.181-4.681-1.347 1.444v3.237h-3.255V2.45h3.255v10.334l4.161-4.557z"/></g><g><path fill="#fff" d="M153.643 16.142l2.717.822c-.612 2.117-2.521 3.885-5.483 3.885-3.304 0-6.217-2.416-6.217-6.55 0-3.909 2.84-6.449 5.923-6.449 3.72 0 5.948 2.416 5.948 6.35 0 .473-.049.971-.049 1.021h-8.616c.074 1.619 1.42 2.79 3.035 2.79 1.518 0 2.35-.773 2.742-1.869zm-5.7-3.197h5.379c-.049-1.215-.831-2.406-2.69-2.406-1.687 0-2.616 1.29-2.69 2.406z"/></g><g><path fill="#fff" d="M165.823 8.17v3.337a4.82 4.82 0 0 0-.98-.1c-1.664 0-3.108.822-3.108 3.462v5.603h-3.255V8.22h3.157v1.817c.735-1.618 2.4-1.917 3.427-1.917.27 0 .514.025.759.05z"/></g><g><path fill="#fff" d="M0 11.457C0 5.13 5.042 0 11.261 0c3.57 0 6.751 1.69 8.815 4.326l-8.012 7.485L8.16 8.212a1.151 1.151 0 0 0-1.645.082 1.2 1.2 0 0 0 .08 1.675l5.48 5.05 9.272-8.663a11.573 11.573 0 0 1 1.175 5.101c0 6.328-5.041 11.457-11.26 11.457C5.041 22.914 0 17.784 0 11.457z"/></g></g></g></svg>