<svg xmlns="http://www.w3.org/2000/svg" width="139" height="19" viewBox="0 0 139 19"><g><g><g><path fill="#fff" d="M36.32 5.025h-4.59v11.89h-2.85V5.025h-4.59V2.33h12.03z"/></g><g><path fill="#fff" d="M40.906 10.969v5.945H38.18V2.02h2.726v5.616c.656-.782 1.762-1.11 2.726-1.11 2.562 0 3.75 1.789 3.75 4.01v6.378h-2.725V11.01c0-1.132-.554-2.016-1.866-2.016-1.147 0-1.824.864-1.885 1.975z"/></g><g><path fill="#fff" d="M56.772 13.33l2.275.68c-.513 1.748-2.111 3.208-4.591 3.208-2.767 0-5.206-1.995-5.206-5.41 0-3.23 2.377-5.328 4.96-5.328 3.115 0 4.98 1.995 4.98 5.246 0 .39-.04.802-.04.843h-7.215c.061 1.337 1.189 2.304 2.541 2.304 1.271 0 1.968-.638 2.296-1.543zm-4.776-2.633h4.51c-.042-1.008-.698-1.995-2.255-1.995-1.414 0-2.193 1.07-2.255 1.995z"/></g><g><path fill="#fff" d="M68.78 17.222c-4.058 0-7.44-2.941-7.44-7.59 0-4.65 3.505-7.612 7.399-7.612 4.017 0 6.087 2.469 6.66 4.834l-2.664.844c-.348-1.4-1.475-2.942-3.996-2.942-2.173 0-4.468 1.563-4.468 4.875 0 3.107 2.172 4.814 4.509 4.814 2.48 0 3.689-1.625 4.078-2.983l2.644.803c-.553 2.242-2.644 4.957-6.722 4.957z"/></g><g><path fill="#fff" d="M79.856 10.969v5.945H77.13V2.02h2.726v5.616c.656-.782 1.762-1.11 2.726-1.11 2.562 0 3.75 1.789 3.75 4.01v6.378h-2.725V11.01c0-1.132-.554-2.016-1.866-2.016-1.147 0-1.824.864-1.885 1.975z"/></g><g><path fill="#fff" d="M95.482 13.33l2.275.68c-.513 1.748-2.111 3.208-4.591 3.208-2.767 0-5.206-1.995-5.206-5.41 0-3.23 2.377-5.328 4.96-5.328 3.115 0 4.98 1.995 4.98 5.246 0 .39-.04.802-.04.843h-7.215c.061 1.337 1.189 2.304 2.541 2.304 1.271 0 1.968-.638 2.296-1.543zm-4.776-2.633h4.51c-.042-1.008-.698-1.995-2.255-1.995-1.414 0-2.193 1.07-2.255 1.995z"/></g><g><path fill="#fff" d="M104.818 9.01c-1.394 0-2.562 1.008-2.562 2.84 0 1.83 1.189 2.859 2.582 2.859 1.394 0 2.09-.926 2.316-1.708l2.398.802c-.45 1.687-2.029 3.415-4.714 3.415-2.972 0-5.308-2.263-5.308-5.369 0-3.127 2.295-5.369 5.226-5.369 2.747 0 4.304 1.707 4.735 3.415l-2.44.823c-.245-.844-.88-1.708-2.233-1.708z"/></g><g><path fill="#fff" d="M120.956 6.793l-4.037 4.258 4.12 5.863h-3.342l-2.664-3.868-1.127 1.193v2.675h-2.726V2.02h2.726v8.537l3.484-3.764z"/></g><g><path fill="#fff" d="M128.652 13.33l2.275.68c-.513 1.748-2.111 3.208-4.591 3.208-2.767 0-5.206-1.995-5.206-5.41 0-3.23 2.377-5.328 4.96-5.328 3.115 0 4.98 1.995 4.98 5.246 0 .39-.04.802-.04.843h-7.215c.061 1.337 1.189 2.304 2.541 2.304 1.271 0 1.968-.638 2.296-1.543zm-4.776-2.633h4.51c-.042-1.008-.698-1.995-2.255-1.995-1.414 0-2.193 1.07-2.255 1.995z"/></g><g><path fill="#fff" d="M138.849 6.751v2.757a4.09 4.09 0 0 0-.82-.083c-1.394 0-2.603.68-2.603 2.86v4.628H132.7V6.793h2.644v1.501c.615-1.337 2.008-1.584 2.87-1.584.225 0 .43.02.635.041z"/></g><g><path fill="#00d692" d="M0 9.465C0 4.237 4.222 0 9.43 0a9.4 9.4 0 0 1 7.38 3.574l-6.708 6.183-3.269-2.973a.973.973 0 0 0-1.378.068.982.982 0 0 0 .068 1.383l4.587 4.172 7.765-7.156c.63 1.269.984 2.7.984 4.214 0 5.227-4.222 9.464-9.43 9.464C4.223 18.93 0 14.692 0 9.465z"/></g></g></g></svg>